<svg width="49" height="52" viewBox="0 0 49 52" fill="none" xmlns="http://www.w3.org/2000/svg">
<path d="M12.555 15.12C12.275 15.12 12.06 15.04 11.91 14.88C11.76 14.72 11.685 14.5 11.685 14.22V5.205C11.685 4.915 11.765 4.695 11.925 4.545C12.085 4.385 12.305 4.305 12.585 4.305C12.835 4.305 13.03 4.355 13.17 4.455C13.32 4.545 13.455 4.705 13.575 4.935L17.28 11.79H16.8L20.505 4.935C20.625 4.705 20.755 4.545 20.895 4.455C21.035 4.355 21.23 4.305 21.48 4.305C21.76 4.305 21.975 4.385 22.125 4.545C22.275 4.695 22.35 4.915 22.35 5.205V14.22C22.35 14.5 22.275 14.72 22.125 14.88C21.985 15.04 21.77 15.12 21.48 15.12C21.2 15.12 20.985 15.04 20.835 14.88C20.685 14.72 20.61 14.5 20.61 14.22V7.275H20.94L17.79 13.02C17.69 13.19 17.585 13.315 17.475 13.395C17.365 13.475 17.215 13.515 17.025 13.515C16.835 13.515 16.68 13.475 16.56 13.395C16.44 13.305 16.335 13.18 16.245 13.02L13.065 7.26H13.425V14.22C13.425 14.5 13.35 14.72 13.2 14.88C13.06 15.04 12.845 15.12 12.555 15.12Z" fill="#292D32"/>
<path d="M26.5 8.5H35.5" stroke="#292D32" stroke-width="1.5" stroke-linecap="round" stroke-linejoin="round"/>
<path d="M26.5 13.5H35.5" stroke="#292D32" stroke-width="1.5" stroke-linecap="round" stroke-linejoin="round"/>
<path d="M17.5 18.5H35.5" stroke="#292D32" stroke-width="1.5" stroke-linecap="round" stroke-linejoin="round"/>
<path d="M17.5 23.5H35.5" stroke="#292D32" stroke-width="1.5" stroke-linecap="round" stroke-linejoin="round"/>
<path d="M2.03 47C1.722 47 1.484 46.9207 1.316 46.762C1.15733 46.594 1.078 46.356 1.078 46.048V38.082C1.078 37.774 1.15733 37.5407 1.316 37.382C1.484 37.214 1.722 37.13 2.03 37.13H7.028C7.26133 37.13 7.43867 37.1907 7.56 37.312C7.69067 37.4333 7.756 37.606 7.756 37.83C7.756 38.0633 7.69067 38.2453 7.56 38.376C7.43867 38.4973 7.26133 38.558 7.028 38.558H2.8V41.274H6.72C6.96267 41.274 7.14467 41.3347 7.266 41.456C7.38733 41.5773 7.448 41.7547 7.448 41.988C7.448 42.2213 7.38733 42.3987 7.266 42.52C7.14467 42.6413 6.96267 42.702 6.72 42.702H2.8V45.572H7.028C7.26133 45.572 7.43867 45.6327 7.56 45.754C7.69067 45.8753 7.756 46.0527 7.756 46.286C7.756 46.5193 7.69067 46.6967 7.56 46.818C7.43867 46.9393 7.26133 47 7.028 47H2.03ZM9.73952 47.07C9.53418 47.07 9.36152 47.014 9.22152 46.902C9.09085 46.7807 9.02085 46.6267 9.01152 46.44C9.01152 46.2533 9.09085 46.0573 9.24952 45.852L11.5175 43.052V43.878L9.38952 41.26C9.22152 41.0547 9.14218 40.8587 9.15152 40.672C9.16085 40.4853 9.23085 40.336 9.36152 40.224C9.50152 40.1027 9.67418 40.042 9.87952 40.042C10.0942 40.042 10.2715 40.0793 10.4115 40.154C10.5608 40.2287 10.6962 40.3453 10.8175 40.504L12.4975 42.66H11.8815L13.5755 40.504C13.7062 40.3453 13.8415 40.2287 13.9815 40.154C14.1215 40.0793 14.2942 40.042 14.4995 40.042C14.7142 40.042 14.8868 40.1027 15.0175 40.224C15.1482 40.3453 15.2135 40.4993 15.2135 40.686C15.2228 40.8727 15.1435 41.0687 14.9755 41.274L12.8615 43.864V43.08L15.1295 45.852C15.2975 46.048 15.3768 46.2393 15.3675 46.426C15.3582 46.6127 15.2835 46.7667 15.1435 46.888C15.0128 47.0093 14.8402 47.07 14.6255 47.07C14.4202 47.07 14.2475 47.0327 14.1075 46.958C13.9675 46.8833 13.8322 46.7667 13.7015 46.608L11.8815 44.312H12.4695L10.6635 46.608C10.5422 46.7573 10.4115 46.874 10.2715 46.958C10.1315 47.0327 9.95418 47.07 9.73952 47.07ZM17.7741 49.632C17.4941 49.632 17.2794 49.5573 17.1301 49.408C16.9808 49.2587 16.9061 49.0393 16.9061 48.75V40.924C16.9061 40.6347 16.9808 40.4153 17.1301 40.266C17.2794 40.1167 17.4894 40.042 17.7601 40.042C18.0401 40.042 18.2548 40.1167 18.4041 40.266C18.5534 40.4153 18.6281 40.6347 18.6281 40.924V42.016L18.4741 41.596C18.6141 41.12 18.8988 40.7373 19.3281 40.448C19.7668 40.1587 20.2754 40.014 20.8541 40.014C21.4514 40.014 21.9741 40.1587 22.4221 40.448C22.8794 40.7373 23.2341 41.148 23.4861 41.68C23.7381 42.2027 23.8641 42.8327 23.8641 43.57C23.8641 44.298 23.7381 44.9327 23.4861 45.474C23.2341 46.006 22.8841 46.4167 22.4361 46.706C21.9881 46.9953 21.4608 47.14 20.8541 47.14C20.2848 47.14 19.7854 47 19.3561 46.72C18.9268 46.4307 18.6374 46.0573 18.4881 45.6H18.6561V48.75C18.6561 49.0393 18.5768 49.2587 18.4181 49.408C18.2688 49.5573 18.0541 49.632 17.7741 49.632ZM20.3641 45.81C20.7094 45.81 21.0128 45.726 21.2741 45.558C21.5354 45.39 21.7361 45.1427 21.8761 44.816C22.0254 44.48 22.1001 44.0647 22.1001 43.57C22.1001 42.8233 21.9414 42.268 21.6241 41.904C21.3068 41.5307 20.8868 41.344 20.3641 41.344C20.0188 41.344 19.7154 41.428 19.4541 41.596C19.1928 41.7547 18.9874 42.002 18.8381 42.338C18.6981 42.6647 18.6281 43.0753 18.6281 43.57C18.6281 44.3073 18.7868 44.8673 19.1041 45.25C19.4214 45.6233 19.8414 45.81 20.3641 45.81ZM27.6386 47.14C26.864 47.14 26.2806 46.9207 25.8886 46.482C25.4966 46.034 25.3006 45.3807 25.3006 44.522V37.9C25.3006 37.6107 25.3753 37.3913 25.5246 37.242C25.674 37.0927 25.8886 37.018 26.1686 37.018C26.4486 37.018 26.6633 37.0927 26.8126 37.242C26.9713 37.3913 27.0506 37.6107 27.0506 37.9V44.438C27.0506 44.8673 27.1393 45.1847 27.3166 45.39C27.5033 45.5953 27.7646 45.698 28.1006 45.698C28.1753 45.698 28.2453 45.698 28.3106 45.698C28.376 45.6887 28.4413 45.6793 28.5066 45.67C28.6373 45.6513 28.726 45.6887 28.7726 45.782C28.8193 45.866 28.8426 46.0433 28.8426 46.314C28.8426 46.5473 28.796 46.7293 28.7026 46.86C28.6093 46.9907 28.4553 47.07 28.2406 47.098C28.1473 47.1073 28.0493 47.1167 27.9466 47.126C27.844 47.1353 27.7413 47.14 27.6386 47.14ZM32.0253 47.14C31.5307 47.14 31.0873 47.0467 30.6953 46.86C30.3127 46.664 30.0093 46.4027 29.7853 46.076C29.5707 45.7493 29.4633 45.3807 29.4633 44.97C29.4633 44.466 29.594 44.0693 29.8553 43.78C30.1167 43.4813 30.5413 43.2667 31.1293 43.136C31.7173 43.0053 32.506 42.94 33.4953 42.94H34.1953V43.948H33.5093C32.9307 43.948 32.4687 43.976 32.1233 44.032C31.778 44.088 31.5307 44.186 31.3813 44.326C31.2413 44.4567 31.1713 44.6433 31.1713 44.886C31.1713 45.194 31.2787 45.446 31.4933 45.642C31.708 45.838 32.0067 45.936 32.3893 45.936C32.6973 45.936 32.968 45.866 33.2013 45.726C33.444 45.5767 33.6353 45.376 33.7753 45.124C33.9153 44.872 33.9853 44.5827 33.9853 44.256V42.646C33.9853 42.1793 33.8827 41.8433 33.6773 41.638C33.472 41.4327 33.1267 41.33 32.6413 41.33C32.3707 41.33 32.0767 41.3627 31.7593 41.428C31.4513 41.4933 31.1247 41.6053 30.7793 41.764C30.602 41.848 30.4433 41.8713 30.3033 41.834C30.1727 41.7967 30.07 41.722 29.9953 41.61C29.9207 41.4887 29.8833 41.358 29.8833 41.218C29.8833 41.078 29.9207 40.9427 29.9953 40.812C30.07 40.672 30.196 40.5693 30.3733 40.504C30.8027 40.3267 31.2133 40.2007 31.6053 40.126C32.0067 40.0513 32.3707 40.014 32.6973 40.014C33.3693 40.014 33.92 40.1167 34.3493 40.322C34.788 40.5273 35.1147 40.84 35.3293 41.26C35.544 41.6707 35.6513 42.2027 35.6513 42.856V46.216C35.6513 46.5053 35.5813 46.7293 35.4413 46.888C35.3013 47.0373 35.1007 47.112 34.8393 47.112C34.578 47.112 34.3727 47.0373 34.2233 46.888C34.0833 46.7293 34.0133 46.5053 34.0133 46.216V45.544H34.1253C34.06 45.8707 33.9293 46.1553 33.7333 46.398C33.5467 46.6313 33.3087 46.8133 33.0193 46.944C32.73 47.0747 32.3987 47.14 32.0253 47.14ZM38.2956 47.098C38.0156 47.098 37.8009 47.014 37.6516 46.846C37.5022 46.678 37.4276 46.4447 37.4276 46.146V41.008C37.4276 40.7 37.5022 40.4667 37.6516 40.308C37.8009 40.14 38.0156 40.056 38.2956 40.056C38.5756 40.056 38.7902 40.14 38.9396 40.308C39.0982 40.4667 39.1776 40.7 39.1776 41.008V46.146C39.1776 46.4447 39.1029 46.678 38.9536 46.846C38.8042 47.014 38.5849 47.098 38.2956 47.098ZM38.2956 38.754C37.9689 38.754 37.7122 38.6747 37.5256 38.516C37.3482 38.348 37.2596 38.1193 37.2596 37.83C37.2596 37.5313 37.3482 37.3027 37.5256 37.144C37.7122 36.9853 37.9689 36.906 38.2956 36.906C38.6316 36.906 38.8882 36.9853 39.0656 37.144C39.2429 37.3027 39.3316 37.5313 39.3316 37.83C39.3316 38.1193 39.2429 38.348 39.0656 38.516C38.8882 38.6747 38.6316 38.754 38.2956 38.754ZM41.8639 47.112C41.5839 47.112 41.3693 47.0373 41.2199 46.888C41.0706 46.7293 40.9959 46.5053 40.9959 46.216V40.924C40.9959 40.6347 41.0706 40.4153 41.2199 40.266C41.3693 40.1167 41.5793 40.042 41.8499 40.042C42.1206 40.042 42.3306 40.1167 42.4799 40.266C42.6293 40.4153 42.7039 40.6347 42.7039 40.924V41.876L42.5499 41.526C42.7553 41.0313 43.0726 40.658 43.5019 40.406C43.9406 40.1447 44.4353 40.014 44.9859 40.014C45.5366 40.014 45.9893 40.1167 46.3439 40.322C46.6986 40.5273 46.9646 40.84 47.1419 41.26C47.3193 41.6707 47.4079 42.1933 47.4079 42.828V46.216C47.4079 46.5053 47.3333 46.7293 47.1839 46.888C47.0346 47.0373 46.8199 47.112 46.5399 47.112C46.2599 47.112 46.0406 47.0373 45.8819 46.888C45.7326 46.7293 45.6579 46.5053 45.6579 46.216V42.912C45.6579 42.38 45.5553 41.9927 45.3499 41.75C45.1539 41.5073 44.8459 41.386 44.4259 41.386C43.9126 41.386 43.5019 41.5493 43.1939 41.876C42.8953 42.1933 42.7459 42.618 42.7459 43.15V46.216C42.7459 46.8133 42.4519 47.112 41.8639 47.112Z" fill="#3F3F3F"/>
</svg>
