<svg width="62" height="48" viewBox="0 0 62 48" fill="none" xmlns="http://www.w3.org/2000/svg">
<path d="M38.56 18.67L36.42 14.4L34.28 18.67" stroke="#292D32" stroke-width="1.5" stroke-linecap="round" stroke-linejoin="round"/>
<path d="M34.67 17.9099H38.19" stroke="#292D32" stroke-width="1.5" stroke-linecap="round" stroke-linejoin="round"/>
<path d="M36.42 22.0001C33.62 22.0001 31.34 19.73 31.34 16.92C31.34 14.12 33.61 11.8401 36.42 11.8401C39.22 11.8401 41.5 14.11 41.5 16.92C41.5 19.73 39.23 22.0001 36.42 22.0001Z" stroke="#292D32" stroke-width="1.5" stroke-linecap="round" stroke-linejoin="round"/>
<path d="M24.52 2H28.44C30.51 2 31.51 3.00002 31.46 5.02002V8.94C31.51 11.01 30.51 12.01 28.44 11.96H24.52C22.5 12 21.5 11 21.5 8.92999V5.01001C21.5 3.00001 22.5 2 24.52 2Z" stroke="#292D32" stroke-width="1.5" stroke-linecap="round" stroke-linejoin="round"/>
<path d="M28.5099 5.84985H24.45" stroke="#292D32" stroke-width="1.5" stroke-linecap="round" stroke-linejoin="round"/>
<path d="M26.47 5.16992V5.84991" stroke="#292D32" stroke-width="1.5" stroke-linecap="round" stroke-linejoin="round"/>
<path d="M27.4899 5.83997C27.4899 7.58997 26.1199 9.00995 24.4399 9.00995" stroke="#292D32" stroke-width="1.5" stroke-linecap="round" stroke-linejoin="round"/>
<path d="M28.5099 9.01001C27.7799 9.01001 27.1199 8.62 26.6599 8" stroke="#292D32" stroke-width="1.5" stroke-linecap="round" stroke-linejoin="round"/>
<path d="M21.5 15C21.5 18.87 24.63 22 28.5 22L27.45 20.25" stroke="#292D32" stroke-width="1.5" stroke-linecap="round" stroke-linejoin="round"/>
<path d="M41.5 9C41.5 5.13 38.37 2 34.5 2L35.55 3.75" stroke="#292D32" stroke-width="1.5" stroke-linecap="round" stroke-linejoin="round"/>
<path d="M5.354 43.112C5.06467 43.112 4.84067 43.0327 4.682 42.874C4.53267 42.706 4.458 42.4773 4.458 42.188V34.628H1.728C1.48533 34.628 1.294 34.5627 1.154 34.432C1.02333 34.292 0.958 34.1053 0.958 33.872C0.958 33.6293 1.02333 33.4473 1.154 33.326C1.294 33.1953 1.48533 33.13 1.728 33.13H8.98C9.22267 33.13 9.40933 33.1953 9.54 33.326C9.68 33.4473 9.75 33.6293 9.75 33.872C9.75 34.1053 9.68 34.292 9.54 34.432C9.40933 34.5627 9.22267 34.628 8.98 34.628H6.25V42.188C6.25 42.4773 6.17533 42.706 6.026 42.874C5.87667 43.0327 5.65267 43.112 5.354 43.112ZM10.4076 43.112C10.1182 43.112 9.89423 43.0373 9.73556 42.888C9.58623 42.7293 9.51156 42.5053 9.51156 42.216V36.924C9.51156 36.6347 9.58623 36.4153 9.73556 36.266C9.8849 36.1167 10.0949 36.042 10.3656 36.042C10.6362 36.042 10.8462 36.1167 10.9956 36.266C11.1449 36.4153 11.2196 36.6347 11.2196 36.924V37.806H11.0796C11.2102 37.246 11.4669 36.8213 11.8496 36.532C12.2322 36.2427 12.7409 36.07 13.3756 36.014C13.5716 35.9953 13.7256 36.0467 13.8376 36.168C13.9589 36.28 14.0289 36.4573 14.0476 36.7C14.0662 36.9333 14.0102 37.1247 13.8796 37.274C13.7582 37.414 13.5716 37.498 13.3196 37.526L13.0116 37.554C12.4422 37.61 12.0129 37.7873 11.7236 38.086C11.4342 38.3753 11.2896 38.786 11.2896 39.318V42.216C11.2896 42.5053 11.2149 42.7293 11.0656 42.888C10.9162 43.0373 10.6969 43.112 10.4076 43.112ZM17.1796 43.14C16.685 43.14 16.2416 43.0467 15.8496 42.86C15.467 42.664 15.1636 42.4027 14.9396 42.076C14.725 41.7493 14.6176 41.3807 14.6176 40.97C14.6176 40.466 14.7483 40.0693 15.0096 39.78C15.271 39.4813 15.6956 39.2667 16.2836 39.136C16.8716 39.0053 17.6603 38.94 18.6496 38.94H19.3496V39.948H18.6636C18.085 39.948 17.623 39.976 17.2776 40.032C16.9323 40.088 16.685 40.186 16.5356 40.326C16.3956 40.4567 16.3256 40.6433 16.3256 40.886C16.3256 41.194 16.433 41.446 16.6476 41.642C16.8623 41.838 17.161 41.936 17.5436 41.936C17.8516 41.936 18.1223 41.866 18.3556 41.726C18.5983 41.5767 18.7896 41.376 18.9296 41.124C19.0696 40.872 19.1396 40.5827 19.1396 40.256V38.646C19.1396 38.1793 19.037 37.8433 18.8316 37.638C18.6263 37.4327 18.281 37.33 17.7956 37.33C17.525 37.33 17.231 37.3627 16.9136 37.428C16.6056 37.4933 16.279 37.6053 15.9336 37.764C15.7563 37.848 15.5976 37.8713 15.4576 37.834C15.327 37.7967 15.2243 37.722 15.1496 37.61C15.075 37.4887 15.0376 37.358 15.0376 37.218C15.0376 37.078 15.075 36.9427 15.1496 36.812C15.2243 36.672 15.3503 36.5693 15.5276 36.504C15.957 36.3267 16.3676 36.2007 16.7596 36.126C17.161 36.0513 17.525 36.014 17.8516 36.014C18.5236 36.014 19.0743 36.1167 19.5036 36.322C19.9423 36.5273 20.269 36.84 20.4836 37.26C20.6983 37.6707 20.8056 38.2027 20.8056 38.856V42.216C20.8056 42.5053 20.7356 42.7293 20.5956 42.888C20.4556 43.0373 20.255 43.112 19.9936 43.112C19.7323 43.112 19.527 43.0373 19.3776 42.888C19.2376 42.7293 19.1676 42.5053 19.1676 42.216V41.544H19.2796C19.2143 41.8707 19.0836 42.1553 18.8876 42.398C18.701 42.6313 18.463 42.8133 18.1736 42.944C17.8843 43.0747 17.553 43.14 17.1796 43.14ZM23.4499 43.112C23.1699 43.112 22.9552 43.0373 22.8059 42.888C22.6565 42.7293 22.5819 42.5053 22.5819 42.216V36.924C22.5819 36.6347 22.6565 36.4153 22.8059 36.266C22.9552 36.1167 23.1652 36.042 23.4359 36.042C23.7065 36.042 23.9165 36.1167 24.0659 36.266C24.2152 36.4153 24.2899 36.6347 24.2899 36.924V37.876L24.1359 37.526C24.3412 37.0313 24.6585 36.658 25.0879 36.406C25.5265 36.1447 26.0212 36.014 26.5719 36.014C27.1225 36.014 27.5752 36.1167 27.9299 36.322C28.2845 36.5273 28.5505 36.84 28.7279 37.26C28.9052 37.6707 28.9939 38.1933 28.9939 38.828V42.216C28.9939 42.5053 28.9192 42.7293 28.7699 42.888C28.6205 43.0373 28.4059 43.112 28.1259 43.112C27.8459 43.112 27.6265 43.0373 27.4679 42.888C27.3185 42.7293 27.2439 42.5053 27.2439 42.216V38.912C27.2439 38.38 27.1412 37.9927 26.9359 37.75C26.7399 37.5073 26.4319 37.386 26.0119 37.386C25.4985 37.386 25.0879 37.5493 24.7799 37.876C24.4812 38.1933 24.3319 38.618 24.3319 39.15V42.216C24.3319 42.8133 24.0379 43.112 23.4499 43.112ZM33.2773 43.14C32.876 43.14 32.4513 43.098 32.0033 43.014C31.5553 42.93 31.154 42.7853 30.7993 42.58C30.65 42.4867 30.5427 42.3793 30.4773 42.258C30.4213 42.1273 30.398 42.0013 30.4073 41.88C30.426 41.7493 30.4727 41.6373 30.5473 41.544C30.6313 41.4507 30.734 41.39 30.8553 41.362C30.986 41.334 31.126 41.3573 31.2753 41.432C31.6487 41.6093 31.9987 41.7353 32.3253 41.81C32.652 41.8753 32.974 41.908 33.2913 41.908C33.7393 41.908 34.0707 41.8333 34.2853 41.684C34.5093 41.5253 34.6213 41.32 34.6213 41.068C34.6213 40.8533 34.5467 40.69 34.3973 40.578C34.2573 40.4567 34.0427 40.368 33.7533 40.312L32.3533 40.046C31.7747 39.934 31.3313 39.724 31.0233 39.416C30.7247 39.0987 30.5753 38.6927 30.5753 38.198C30.5753 37.75 30.6967 37.3627 30.9393 37.036C31.1913 36.7093 31.5367 36.4573 31.9753 36.28C32.414 36.1027 32.918 36.014 33.4873 36.014C33.898 36.014 34.2807 36.0607 34.6353 36.154C34.9993 36.238 35.3493 36.3733 35.6853 36.56C35.8253 36.6347 35.9187 36.7327 35.9653 36.854C36.0213 36.9753 36.0353 37.1013 36.0073 37.232C35.9793 37.3533 35.9233 37.4653 35.8393 37.568C35.7553 37.6613 35.648 37.722 35.5173 37.75C35.396 37.7687 35.256 37.7407 35.0973 37.666C34.808 37.5167 34.528 37.4093 34.2573 37.344C33.996 37.2787 33.744 37.246 33.5013 37.246C33.044 37.246 32.7033 37.3253 32.4793 37.484C32.2647 37.6427 32.1573 37.8527 32.1573 38.114C32.1573 38.31 32.2227 38.4733 32.3533 38.604C32.484 38.7347 32.6847 38.8233 32.9553 38.87L34.3553 39.136C34.962 39.248 35.4193 39.4533 35.7273 39.752C36.0447 40.0507 36.2033 40.452 36.2033 40.956C36.2033 41.6373 35.9373 42.174 35.4053 42.566C34.8733 42.9487 34.164 43.14 33.2773 43.14ZM39.9453 43.14C39.1706 43.14 38.5873 42.9207 38.1953 42.482C37.8033 42.034 37.6073 41.3807 37.6073 40.522V33.9C37.6073 33.6107 37.6819 33.3913 37.8313 33.242C37.9806 33.0927 38.1953 33.018 38.4753 33.018C38.7553 33.018 38.9699 33.0927 39.1193 33.242C39.2779 33.3913 39.3573 33.6107 39.3573 33.9V40.438C39.3573 40.8673 39.4459 41.1847 39.6233 41.39C39.8099 41.5953 40.0713 41.698 40.4073 41.698C40.4819 41.698 40.5519 41.698 40.6173 41.698C40.6826 41.6887 40.7479 41.6793 40.8133 41.67C40.9439 41.6513 41.0326 41.6887 41.0793 41.782C41.1259 41.866 41.1493 42.0433 41.1493 42.314C41.1493 42.5473 41.1026 42.7293 41.0093 42.86C40.9159 42.9907 40.7619 43.07 40.5473 43.098C40.4539 43.1073 40.3559 43.1167 40.2533 43.126C40.1506 43.1353 40.0479 43.14 39.9453 43.14ZM44.332 43.14C43.8373 43.14 43.394 43.0467 43.002 42.86C42.6193 42.664 42.316 42.4027 42.092 42.076C41.8773 41.7493 41.77 41.3807 41.77 40.97C41.77 40.466 41.9006 40.0693 42.162 39.78C42.4233 39.4813 42.848 39.2667 43.436 39.136C44.024 39.0053 44.8126 38.94 45.802 38.94H46.502V39.948H45.816C45.2373 39.948 44.7753 39.976 44.43 40.032C44.0846 40.088 43.8373 40.186 43.688 40.326C43.548 40.4567 43.478 40.6433 43.478 40.886C43.478 41.194 43.5853 41.446 43.8 41.642C44.0146 41.838 44.3133 41.936 44.696 41.936C45.004 41.936 45.2746 41.866 45.508 41.726C45.7506 41.5767 45.942 41.376 46.082 41.124C46.222 40.872 46.292 40.5827 46.292 40.256V38.646C46.292 38.1793 46.1893 37.8433 45.984 37.638C45.7786 37.4327 45.4333 37.33 44.948 37.33C44.6773 37.33 44.3833 37.3627 44.066 37.428C43.758 37.4933 43.4313 37.6053 43.086 37.764C42.9086 37.848 42.75 37.8713 42.61 37.834C42.4793 37.7967 42.3766 37.722 42.302 37.61C42.2273 37.4887 42.19 37.358 42.19 37.218C42.19 37.078 42.2273 36.9427 42.302 36.812C42.3766 36.672 42.5026 36.5693 42.68 36.504C43.1093 36.3267 43.52 36.2007 43.912 36.126C44.3133 36.0513 44.6773 36.014 45.004 36.014C45.676 36.014 46.2266 36.1167 46.656 36.322C47.0946 36.5273 47.4213 36.84 47.636 37.26C47.8506 37.6707 47.958 38.2027 47.958 38.856V42.216C47.958 42.5053 47.888 42.7293 47.748 42.888C47.608 43.0373 47.4073 43.112 47.146 43.112C46.8846 43.112 46.6793 43.0373 46.53 42.888C46.39 42.7293 46.32 42.5053 46.32 42.216V41.544H46.432C46.3666 41.8707 46.236 42.1553 46.04 42.398C45.8533 42.6313 45.6153 42.8133 45.326 42.944C45.0366 43.0747 44.7053 43.14 44.332 43.14ZM52.8702 43.14C52.2636 43.14 51.7549 43.0373 51.3442 42.832C50.9429 42.6267 50.6442 42.328 50.4482 41.936C50.2522 41.5347 50.1542 41.04 50.1542 40.452V37.47H49.4262C49.2022 37.47 49.0296 37.414 48.9082 37.302C48.7869 37.1807 48.7262 37.0173 48.7262 36.812C48.7262 36.5973 48.7869 36.434 48.9082 36.322C49.0296 36.21 49.2022 36.154 49.4262 36.154H50.1542V34.88C50.1542 34.5907 50.2289 34.3713 50.3782 34.222C50.5369 34.0727 50.7562 33.998 51.0362 33.998C51.3162 33.998 51.5309 34.0727 51.6802 34.222C51.8296 34.3713 51.9042 34.5907 51.9042 34.88V36.154H53.3882C53.6122 36.154 53.7849 36.21 53.9062 36.322C54.0276 36.434 54.0882 36.5973 54.0882 36.812C54.0882 37.0173 54.0276 37.1807 53.9062 37.302C53.7849 37.414 53.6122 37.47 53.3882 37.47H51.9042V40.354C51.9042 40.802 52.0022 41.138 52.1982 41.362C52.3942 41.586 52.7116 41.698 53.1502 41.698C53.3089 41.698 53.4489 41.684 53.5702 41.656C53.6916 41.628 53.7989 41.6093 53.8922 41.6C54.0042 41.5907 54.0976 41.628 54.1722 41.712C54.2469 41.7867 54.2842 41.9453 54.2842 42.188C54.2842 42.3747 54.2516 42.5427 54.1862 42.692C54.1302 42.832 54.0229 42.93 53.8642 42.986C53.7429 43.0233 53.5842 43.056 53.3882 43.084C53.1922 43.1213 53.0196 43.14 52.8702 43.14ZM58.4129 43.14C57.6382 43.14 56.9709 42.9953 56.4109 42.706C55.8509 42.4167 55.4169 42.006 55.1089 41.474C54.8102 40.942 54.6609 40.312 54.6609 39.584C54.6609 38.8747 54.8056 38.254 55.0949 37.722C55.3936 37.19 55.7996 36.7747 56.3129 36.476C56.8356 36.168 57.4282 36.014 58.0909 36.014C58.5762 36.014 59.0102 36.0933 59.3929 36.252C59.7849 36.4107 60.1162 36.6393 60.3869 36.938C60.6669 37.2367 60.8769 37.6007 61.0169 38.03C61.1662 38.45 61.2409 38.926 61.2409 39.458C61.2409 39.626 61.1802 39.7567 61.0589 39.85C60.9469 39.934 60.7836 39.976 60.5689 39.976H56.0749V38.968H60.0089L59.7849 39.178C59.7849 38.7487 59.7196 38.3893 59.5889 38.1C59.4676 37.8107 59.2856 37.5913 59.0429 37.442C58.8096 37.2833 58.5156 37.204 58.1609 37.204C57.7689 37.204 57.4329 37.2973 57.1529 37.484C56.8822 37.6613 56.6722 37.918 56.5229 38.254C56.3829 38.5807 56.3129 38.9727 56.3129 39.43V39.528C56.3129 40.2933 56.4902 40.8673 56.8449 41.25C57.2089 41.6233 57.7409 41.81 58.4409 41.81C58.6836 41.81 58.9542 41.782 59.2529 41.726C59.5609 41.6607 59.8502 41.5533 60.1209 41.404C60.3169 41.292 60.4896 41.2453 60.6389 41.264C60.7882 41.2733 60.9049 41.3247 60.9889 41.418C61.0822 41.5113 61.1382 41.628 61.1569 41.768C61.1756 41.8987 61.1476 42.034 61.0729 42.174C61.0076 42.314 60.8909 42.4353 60.7229 42.538C60.3962 42.7433 60.0182 42.8973 59.5889 43C59.1689 43.0933 58.7769 43.14 58.4129 43.14Z" fill="#3F3F3F"/>
</svg>
