<svg width="81" height="48" viewBox="0 0 81 48" fill="none" xmlns="http://www.w3.org/2000/svg">
<path d="M41.76 3.59997L33.55 12.29C33.24 12.62 32.94 13.27 32.88 13.72L32.51 16.96C32.38 18.13 33.22 18.93 34.38 18.73L37.6 18.18C38.05 18.1 38.68 17.77 38.99 17.43L47.2 8.73997C48.62 7.23997 49.26 5.52997 47.05 3.43997C44.85 1.36997 43.18 2.09997 41.76 3.59997Z" stroke="#292D32" stroke-width="1.5" stroke-miterlimit="10" stroke-linecap="round" stroke-linejoin="round"/>
<path d="M40.39 5.04999C40.82 7.80999 43.06 9.91999 45.84 10.2" stroke="#292D32" stroke-width="1.5" stroke-miterlimit="10" stroke-linecap="round" stroke-linejoin="round"/>
<path d="M31.5 22H49.5" stroke="#292D32" stroke-width="1.5" stroke-miterlimit="10" stroke-linecap="round" stroke-linejoin="round"/>
<path d="M5.05 43.112C4.798 43.112 4.59267 43.0513 4.434 42.93C4.28467 42.8087 4.16333 42.6173 4.07 42.356L1.144 34.082C1.04133 33.7833 1.06 33.5313 1.2 33.326C1.34933 33.1207 1.59667 33.018 1.942 33.018C2.194 33.018 2.39 33.0787 2.53 33.2C2.67 33.312 2.782 33.494 2.866 33.746L5.386 41.222H4.826L7.458 33.76C7.55133 33.508 7.668 33.3213 7.808 33.2C7.948 33.0787 8.13 33.018 8.354 33.018C8.578 33.018 8.75533 33.0787 8.886 33.2C9.01667 33.3213 9.12867 33.5127 9.222 33.774L11.77 41.222H11.28L13.842 33.746C13.926 33.5033 14.038 33.3213 14.178 33.2C14.318 33.0787 14.5093 33.018 14.752 33.018C15.0507 33.018 15.27 33.1207 15.41 33.326C15.55 33.5313 15.5687 33.7833 15.466 34.082L12.512 42.37C12.4187 42.622 12.2973 42.8087 12.148 42.93C11.9987 43.0513 11.798 43.112 11.546 43.112C11.294 43.112 11.0933 43.0513 10.944 42.93C10.7947 42.8087 10.6733 42.6173 10.58 42.356L8.144 35.412H8.466L6.002 42.37C5.90867 42.622 5.78733 42.8087 5.638 42.93C5.498 43.0513 5.302 43.112 5.05 43.112ZM17.0853 43.112C16.796 43.112 16.572 43.0373 16.4133 42.888C16.264 42.7293 16.1893 42.5053 16.1893 42.216V36.924C16.1893 36.6347 16.264 36.4153 16.4133 36.266C16.5626 36.1167 16.7726 36.042 17.0433 36.042C17.314 36.042 17.524 36.1167 17.6733 36.266C17.8226 36.4153 17.8973 36.6347 17.8973 36.924V37.806H17.7573C17.888 37.246 18.1446 36.8213 18.5273 36.532C18.91 36.2427 19.4186 36.07 20.0533 36.014C20.2493 35.9953 20.4033 36.0467 20.5153 36.168C20.6366 36.28 20.7066 36.4573 20.7253 36.7C20.744 36.9333 20.688 37.1247 20.5573 37.274C20.436 37.414 20.2493 37.498 19.9973 37.526L19.6893 37.554C19.12 37.61 18.6906 37.7873 18.4013 38.086C18.112 38.3753 17.9673 38.786 17.9673 39.318V42.216C17.9673 42.5053 17.8926 42.7293 17.7433 42.888C17.594 43.0373 17.3746 43.112 17.0853 43.112ZM22.5397 43.098C22.2597 43.098 22.0451 43.014 21.8957 42.846C21.7464 42.678 21.6717 42.4447 21.6717 42.146V37.008C21.6717 36.7 21.7464 36.4667 21.8957 36.308C22.0451 36.14 22.2597 36.056 22.5397 36.056C22.8197 36.056 23.0344 36.14 23.1837 36.308C23.3424 36.4667 23.4217 36.7 23.4217 37.008V42.146C23.4217 42.4447 23.3471 42.678 23.1977 42.846C23.0484 43.014 22.8291 43.098 22.5397 43.098ZM22.5397 34.754C22.2131 34.754 21.9564 34.6747 21.7697 34.516C21.5924 34.348 21.5037 34.1193 21.5037 33.83C21.5037 33.5313 21.5924 33.3027 21.7697 33.144C21.9564 32.9853 22.2131 32.906 22.5397 32.906C22.8757 32.906 23.1324 32.9853 23.3097 33.144C23.4871 33.3027 23.5757 33.5313 23.5757 33.83C23.5757 34.1193 23.4871 34.348 23.3097 34.516C23.1324 34.6747 22.8757 34.754 22.5397 34.754ZM28.3761 43.14C27.7694 43.14 27.2607 43.0373 26.8501 42.832C26.4487 42.6267 26.1501 42.328 25.9541 41.936C25.7581 41.5347 25.6601 41.04 25.6601 40.452V37.47H24.9321C24.7081 37.47 24.5354 37.414 24.4141 37.302C24.2927 37.1807 24.2321 37.0173 24.2321 36.812C24.2321 36.5973 24.2927 36.434 24.4141 36.322C24.5354 36.21 24.7081 36.154 24.9321 36.154H25.6601V34.88C25.6601 34.5907 25.7347 34.3713 25.8841 34.222C26.0427 34.0727 26.2621 33.998 26.5421 33.998C26.8221 33.998 27.0367 34.0727 27.1861 34.222C27.3354 34.3713 27.4101 34.5907 27.4101 34.88V36.154H28.8941C29.1181 36.154 29.2907 36.21 29.4121 36.322C29.5334 36.434 29.5941 36.5973 29.5941 36.812C29.5941 37.0173 29.5334 37.1807 29.4121 37.302C29.2907 37.414 29.1181 37.47 28.8941 37.47H27.4101V40.354C27.4101 40.802 27.5081 41.138 27.7041 41.362C27.9001 41.586 28.2174 41.698 28.6561 41.698C28.8147 41.698 28.9547 41.684 29.0761 41.656C29.1974 41.628 29.3047 41.6093 29.3981 41.6C29.5101 41.5907 29.6034 41.628 29.6781 41.712C29.7527 41.7867 29.7901 41.9453 29.7901 42.188C29.7901 42.3747 29.7574 42.5427 29.6921 42.692C29.6361 42.832 29.5287 42.93 29.3701 42.986C29.2487 43.0233 29.0901 43.056 28.8941 43.084C28.6981 43.1213 28.5254 43.14 28.3761 43.14ZM33.9188 43.14C33.1441 43.14 32.4768 42.9953 31.9168 42.706C31.3568 42.4167 30.9228 42.006 30.6148 41.474C30.3161 40.942 30.1668 40.312 30.1668 39.584C30.1668 38.8747 30.3114 38.254 30.6008 37.722C30.8994 37.19 31.3054 36.7747 31.8188 36.476C32.3414 36.168 32.9341 36.014 33.5968 36.014C34.0821 36.014 34.5161 36.0933 34.8988 36.252C35.2908 36.4107 35.6221 36.6393 35.8928 36.938C36.1728 37.2367 36.3828 37.6007 36.5228 38.03C36.6721 38.45 36.7468 38.926 36.7468 39.458C36.7468 39.626 36.6861 39.7567 36.5648 39.85C36.4528 39.934 36.2894 39.976 36.0748 39.976H31.5808V38.968H35.5148L35.2908 39.178C35.2908 38.7487 35.2254 38.3893 35.0948 38.1C34.9734 37.8107 34.7914 37.5913 34.5488 37.442C34.3154 37.2833 34.0214 37.204 33.6668 37.204C33.2748 37.204 32.9388 37.2973 32.6588 37.484C32.3881 37.6613 32.1781 37.918 32.0288 38.254C31.8888 38.5807 31.8188 38.9727 31.8188 39.43V39.528C31.8188 40.2933 31.9961 40.8673 32.3508 41.25C32.7148 41.6233 33.2468 41.81 33.9468 41.81C34.1894 41.81 34.4601 41.782 34.7588 41.726C35.0668 41.6607 35.3561 41.5533 35.6268 41.404C35.8228 41.292 35.9954 41.2453 36.1448 41.264C36.2941 41.2733 36.4108 41.3247 36.4948 41.418C36.5881 41.5113 36.6441 41.628 36.6628 41.768C36.6814 41.8987 36.6534 42.034 36.5788 42.174C36.5134 42.314 36.3968 42.4353 36.2288 42.538C35.9021 42.7433 35.5241 42.8973 35.0948 43C34.6748 43.0933 34.2828 43.14 33.9188 43.14ZM45.2374 43.14C44.5374 43.14 43.9308 43.028 43.4174 42.804C42.9041 42.58 42.5074 42.272 42.2274 41.88C41.9568 41.4787 41.8214 41.012 41.8214 40.48C41.8214 40.1627 41.8634 39.8687 41.9474 39.598C42.0408 39.318 42.1714 39.0613 42.3394 38.828C42.5168 38.5853 42.7268 38.3613 42.9694 38.156C43.2214 37.9413 43.5061 37.7407 43.8234 37.554L44.2994 37.274L44.0474 37.652C43.6368 37.2413 43.3381 36.854 43.1514 36.49C42.9741 36.1167 42.8854 35.734 42.8854 35.342C42.8854 34.8753 42.9974 34.4647 43.2214 34.11C43.4454 33.7553 43.7628 33.48 44.1734 33.284C44.5841 33.088 45.0648 32.99 45.6154 32.99C46.3808 32.99 46.9874 33.186 47.4354 33.578C47.8834 33.9607 48.1074 34.4833 48.1074 35.146C48.1074 35.5007 48.0374 35.8367 47.8974 36.154C47.7574 36.4713 47.5334 36.7747 47.2254 37.064C46.9174 37.3533 46.5068 37.638 45.9934 37.918L46.0074 37.498L48.3874 40.032H48.0094C48.1308 39.8267 48.2381 39.6027 48.3314 39.36C48.4248 39.108 48.5041 38.842 48.5694 38.562C48.6441 38.2727 48.7001 37.974 48.7374 37.666C48.7748 37.4327 48.8541 37.26 48.9754 37.148C49.0968 37.0267 49.2694 36.966 49.4934 36.966C49.7361 36.966 49.9181 37.036 50.0394 37.176C50.1608 37.3067 50.2074 37.498 50.1794 37.75C50.1328 38.1887 50.0534 38.6087 49.9414 39.01C49.8388 39.402 49.7081 39.7707 49.5494 40.116C49.3908 40.452 49.2134 40.7647 49.0174 41.054L49.0034 40.62L50.3334 41.964C50.5108 42.1413 50.5994 42.3187 50.5994 42.496C50.5994 42.6733 50.5294 42.8227 50.3894 42.944C50.2588 43.056 50.0768 43.112 49.8434 43.112C49.6381 43.112 49.4701 43.0747 49.3394 43C49.2088 42.916 49.0641 42.7947 48.9054 42.636L48.0374 41.726H48.4434C48.0328 42.1647 47.5474 42.51 46.9874 42.762C46.4368 43.014 45.8534 43.14 45.2374 43.14ZM45.3354 41.754C45.7834 41.754 46.1801 41.67 46.5254 41.502C46.8801 41.3247 47.2021 41.0633 47.4914 40.718L47.4494 41.166L44.5654 38.184L45.2934 38.254L44.8874 38.492C44.5701 38.6787 44.3134 38.8653 44.1174 39.052C43.9214 39.2293 43.7768 39.4253 43.6834 39.64C43.5994 39.8453 43.5574 40.0787 43.5574 40.34C43.5574 40.7787 43.7114 41.124 44.0194 41.376C44.3274 41.628 44.7661 41.754 45.3354 41.754ZM45.6154 34.236C45.2794 34.236 45.0088 34.334 44.8034 34.53C44.5981 34.7167 44.4954 34.9733 44.4954 35.3C44.4954 35.4773 44.5234 35.6453 44.5794 35.804C44.6354 35.9533 44.7334 36.1213 44.8734 36.308C45.0134 36.4853 45.2048 36.7047 45.4474 36.966L45.0554 36.938C45.4474 36.714 45.7554 36.5133 45.9794 36.336C46.2128 36.1587 46.3808 35.9813 46.4834 35.804C46.5861 35.6267 46.6374 35.4307 46.6374 35.216C46.6374 34.8987 46.5441 34.656 46.3574 34.488C46.1708 34.32 45.9234 34.236 45.6154 34.236ZM59.2664 43.14C58.4918 43.14 57.8244 42.9953 57.2644 42.706C56.7044 42.4167 56.2704 42.006 55.9624 41.474C55.6638 40.942 55.5144 40.312 55.5144 39.584C55.5144 38.8747 55.6591 38.254 55.9484 37.722C56.2471 37.19 56.6531 36.7747 57.1664 36.476C57.6891 36.168 58.2818 36.014 58.9444 36.014C59.4298 36.014 59.8638 36.0933 60.2464 36.252C60.6384 36.4107 60.9698 36.6393 61.2404 36.938C61.5204 37.2367 61.7304 37.6007 61.8704 38.03C62.0198 38.45 62.0944 38.926 62.0944 39.458C62.0944 39.626 62.0338 39.7567 61.9124 39.85C61.8004 39.934 61.6371 39.976 61.4224 39.976H56.9284V38.968H60.8624L60.6384 39.178C60.6384 38.7487 60.5731 38.3893 60.4424 38.1C60.3211 37.8107 60.1391 37.5913 59.8964 37.442C59.6631 37.2833 59.3691 37.204 59.0144 37.204C58.6224 37.204 58.2864 37.2973 58.0064 37.484C57.7358 37.6613 57.5258 37.918 57.3764 38.254C57.2364 38.5807 57.1664 38.9727 57.1664 39.43V39.528C57.1664 40.2933 57.3438 40.8673 57.6984 41.25C58.0624 41.6233 58.5944 41.81 59.2944 41.81C59.5371 41.81 59.8078 41.782 60.1064 41.726C60.4144 41.6607 60.7038 41.5533 60.9744 41.404C61.1704 41.292 61.3431 41.2453 61.4924 41.264C61.6418 41.2733 61.7584 41.3247 61.8424 41.418C61.9358 41.5113 61.9918 41.628 62.0104 41.768C62.0291 41.8987 62.0011 42.034 61.9264 42.174C61.8611 42.314 61.7444 42.4353 61.5764 42.538C61.2498 42.7433 60.8718 42.8973 60.4424 43C60.0224 43.0933 59.6304 43.14 59.2664 43.14ZM66.1123 43.14C65.515 43.14 64.9876 42.9953 64.5303 42.706C64.0823 42.4167 63.7323 42.006 63.4803 41.474C63.2283 40.9327 63.1023 40.298 63.1023 39.57C63.1023 38.8327 63.2283 38.2027 63.4803 37.68C63.7323 37.148 64.0823 36.7373 64.5303 36.448C64.9876 36.1587 65.515 36.014 66.1123 36.014C66.6816 36.014 67.1763 36.154 67.5963 36.434C68.0256 36.714 68.315 37.0827 68.4643 37.54H68.3103V33.9C68.3103 33.6107 68.385 33.3913 68.5343 33.242C68.6836 33.0927 68.8983 33.018 69.1783 33.018C69.4583 33.018 69.673 33.0927 69.8223 33.242C69.981 33.3913 70.0603 33.6107 70.0603 33.9V42.216C70.0603 42.5053 69.9856 42.7293 69.8363 42.888C69.687 43.0373 69.4723 43.112 69.1923 43.112C68.9123 43.112 68.6976 43.0373 68.5483 42.888C68.399 42.7293 68.3243 42.5053 68.3243 42.216V41.124L68.4783 41.544C68.3383 42.0293 68.0536 42.4167 67.6243 42.706C67.195 42.9953 66.691 43.14 66.1123 43.14ZM66.6023 41.81C66.9476 41.81 67.251 41.726 67.5123 41.558C67.7736 41.39 67.9743 41.1427 68.1143 40.816C68.2636 40.48 68.3383 40.0647 68.3383 39.57C68.3383 38.8233 68.1796 38.268 67.8623 37.904C67.545 37.5307 67.125 37.344 66.6023 37.344C66.257 37.344 65.9536 37.428 65.6923 37.596C65.431 37.7547 65.2256 38.002 65.0763 38.338C64.9363 38.6647 64.8663 39.0753 64.8663 39.57C64.8663 40.3073 65.025 40.8673 65.3423 41.25C65.6596 41.6233 66.0796 41.81 66.6023 41.81ZM72.7428 43.098C72.4628 43.098 72.2482 43.014 72.0988 42.846C71.9495 42.678 71.8748 42.4447 71.8748 42.146V37.008C71.8748 36.7 71.9495 36.4667 72.0988 36.308C72.2482 36.14 72.4628 36.056 72.7428 36.056C73.0228 36.056 73.2375 36.14 73.3868 36.308C73.5455 36.4667 73.6248 36.7 73.6248 37.008V42.146C73.6248 42.4447 73.5502 42.678 73.4008 42.846C73.2515 43.014 73.0322 43.098 72.7428 43.098ZM72.7428 34.754C72.4162 34.754 72.1595 34.6747 71.9728 34.516C71.7955 34.348 71.7068 34.1193 71.7068 33.83C71.7068 33.5313 71.7955 33.3027 71.9728 33.144C72.1595 32.9853 72.4162 32.906 72.7428 32.906C73.0788 32.906 73.3355 32.9853 73.5128 33.144C73.6902 33.3027 73.7788 33.5313 73.7788 33.83C73.7788 34.1193 73.6902 34.348 73.5128 34.516C73.3355 34.6747 73.0788 34.754 72.7428 34.754ZM78.5792 43.14C77.9725 43.14 77.4639 43.0373 77.0532 42.832C76.6519 42.6267 76.3532 42.328 76.1572 41.936C75.9612 41.5347 75.8632 41.04 75.8632 40.452V37.47H75.1352C74.9112 37.47 74.7385 37.414 74.6172 37.302C74.4959 37.1807 74.4352 37.0173 74.4352 36.812C74.4352 36.5973 74.4959 36.434 74.6172 36.322C74.7385 36.21 74.9112 36.154 75.1352 36.154H75.8632V34.88C75.8632 34.5907 75.9379 34.3713 76.0872 34.222C76.2459 34.0727 76.4652 33.998 76.7452 33.998C77.0252 33.998 77.2399 34.0727 77.3892 34.222C77.5385 34.3713 77.6132 34.5907 77.6132 34.88V36.154H79.0972C79.3212 36.154 79.4939 36.21 79.6152 36.322C79.7365 36.434 79.7972 36.5973 79.7972 36.812C79.7972 37.0173 79.7365 37.1807 79.6152 37.302C79.4939 37.414 79.3212 37.47 79.0972 37.47H77.6132V40.354C77.6132 40.802 77.7112 41.138 77.9072 41.362C78.1032 41.586 78.4205 41.698 78.8592 41.698C79.0179 41.698 79.1579 41.684 79.2792 41.656C79.4005 41.628 79.5079 41.6093 79.6012 41.6C79.7132 41.5907 79.8065 41.628 79.8812 41.712C79.9559 41.7867 79.9932 41.9453 79.9932 42.188C79.9932 42.3747 79.9605 42.5427 79.8952 42.692C79.8392 42.832 79.7319 42.93 79.5732 42.986C79.4519 43.0233 79.2932 43.056 79.0972 43.084C78.9012 43.1213 78.7285 43.14 78.5792 43.14Z" fill="#3F3F3F"/>
</svg>
